<?xml version="1.0" encoding="UTF-8"?>
<svg xmlns="http://www.w3.org/2000/svg" xmlns:xlink="http://www.w3.org/1999/xlink" width="250px" height="75px" viewBox="0 0 250 75" version="1.1">
<g id="surface1">
<path style=" stroke:none;fill-rule:nonzero;fill:rgb(21.176471%,6.27451%,95.686275%);fill-opacity:1;" d="M 126.082031 19.875 C 123.75 20.851562 121.667969 21.976562 121.417969 22.273438 C 121.167969 22.648438 117.167969 22.875 112.417969 22.800781 C 104.332031 22.726562 103.832031 22.800781 101.5 24.675781 C 99.832031 26.023438 98.917969 27.601562 98.582031 29.773438 C 98.332031 31.574219 97.582031 33.375 97 33.824219 C 96.167969 34.425781 95.832031 36.824219 95.832031 42.824219 C 95.832031 53.25 95.5 53.023438 111.25 53.625 C 119.917969 54 123.917969 54.523438 126.832031 55.574219 C 135.167969 58.648438 147.75 56.023438 152.75 50.101562 C 159.417969 42.226562 158.75 30.824219 151.082031 23.773438 C 146.667969 19.648438 143.75 18.523438 136.667969 18.300781 C 131.417969 18.074219 129.667969 18.300781 126.082031 19.875 Z M 145.417969 22.125 C 154.75 27 158.167969 37.273438 153.25 45.898438 C 151.167969 49.574219 148.917969 51.375 143.582031 53.625 C 137.167969 56.398438 128.582031 55.726562 124.25 52.199219 C 123.082031 51.226562 120.5 51 110 51 L 97.25 51 L 97.917969 45.898438 C 98.25 43.125 98.582031 39.523438 98.667969 37.875 C 98.75 35.476562 99.082031 34.875 100.582031 34.5 C 102 34.199219 102.25 33.824219 101.667969 33 C 100.417969 31.273438 100.667969 28.273438 102.167969 26.398438 C 103.5 24.675781 107.332031 24.148438 108.832031 25.5 C 109.332031 25.949219 110.582031 25.949219 112.332031 25.351562 C 114.667969 24.523438 115.5 24.601562 117.5 25.648438 C 119.75 26.851562 119.917969 26.773438 121.832031 24.976562 C 122.832031 23.925781 125.667969 22.199219 127.917969 21.226562 C 133.332031 18.898438 139.917969 19.199219 145.417969 22.125 Z M 145.417969 22.125 "/>
<path style=" stroke:none;fill-rule:nonzero;fill:rgb(21.176471%,6.27451%,95.686275%);fill-opacity:1;" d="M 130.582031 22.050781 C 124.917969 23.925781 120 28.050781 120 30.824219 C 120 31.949219 119.5 33.148438 119 33.449219 C 118.25 33.898438 118.582031 34.199219 120 34.5 C 121.167969 34.800781 122 35.398438 121.917969 35.851562 C 121.75 36.375 122.25 36.75 122.917969 36.75 C 124.082031 36.75 124.332031 36.226562 124.5 32.625 C 124.582031 31.425781 125.25 31.050781 127.75 30.898438 C 130.082031 30.75 130.832031 30.976562 130.832031 31.800781 C 130.832031 32.398438 130.5 33.148438 130 33.375 C 129.582031 33.601562 129.167969 34.273438 129.167969 34.726562 C 129.167969 35.25 129.75 35.023438 130.332031 34.273438 C 130.917969 33.601562 131.832031 33 132.332031 33 C 132.917969 33 133.082031 33.523438 132.75 34.273438 C 132.25 35.476562 132.332031 35.476562 133.582031 34.574219 C 134.917969 33.675781 135 33.675781 134.5 34.949219 C 134.25 35.773438 135.5 34.949219 137.332031 33.148438 C 139.167969 31.425781 140.832031 30 141.167969 30 C 142 30 141.75 32.851562 140.832031 33.375 C 140.417969 33.601562 140 34.726562 140 35.851562 L 140 37.875 L 141.667969 35.398438 C 142.582031 34.125 143.667969 33 144.167969 33 C 144.582031 33 145 32.550781 145 31.949219 C 145 30.675781 147.25 29.773438 147.917969 30.75 C 148.167969 31.125 147.832031 32.476562 147.082031 33.675781 C 145.667969 36.300781 145.582031 36.75 146.582031 36.75 C 147 36.75 147.75 35.699219 148.25 34.425781 C 148.75 33.074219 149.5 32.324219 150 32.625 C 150.5 32.925781 150.75 33.675781 150.417969 34.273438 C 150 35.324219 150.167969 35.324219 151.417969 34.425781 C 152.667969 33.449219 152.75 33.523438 152.25 35.175781 C 151.917969 36.523438 152 36.75 152.667969 36.148438 C 154 34.949219 152.332031 30.226562 149.417969 27.074219 C 145 22.273438 136.667969 20.023438 130.582031 22.050781 Z M 142.5 24.898438 C 146.667969 26.851562 147.667969 28.726562 145.082031 30 C 143.832031 30.601562 142.917969 30.523438 141.75 29.851562 C 140.332031 29.101562 139.75 29.175781 138.082031 30.601562 C 135.667969 32.625 134.167969 32.699219 131.332031 30.675781 C 129.582031 29.476562 128.417969 29.175781 126.167969 29.625 C 123.5 30.074219 123.332031 29.925781 124 28.726562 C 127.082031 23.550781 135.582031 21.824219 142.5 24.898438 Z M 142.5 24.898438 "/>
<path style=" stroke:none;fill-rule:nonzero;fill:rgb(21.176471%,6.27451%,95.686275%);fill-opacity:1;" d="M 110.082031 29.476562 C 110 33.148438 108.582031 34.648438 105.75 34.125 C 102.5 33.449219 102.667969 34.875 105.917969 35.925781 C 109.417969 36.976562 110.917969 36.976562 110.75 35.773438 C 110.667969 35.324219 110.832031 33.898438 111.25 32.773438 C 111.582031 31.5 111.5 30 111 29.023438 C 110.167969 27.449219 110.082031 27.449219 110.082031 29.476562 Z M 110.082031 29.476562 "/>
<path style=" stroke:none;fill-rule:nonzero;fill:rgb(21.176471%,6.27451%,95.686275%);fill-opacity:1;" d="M 116.082031 36.449219 C 115.5 37.800781 117.25 39.074219 118.832031 38.476562 C 119.667969 38.175781 119.75 37.726562 119.082031 36.675781 C 118.082031 34.949219 116.75 34.875 116.082031 36.449219 Z M 116.082031 36.449219 "/>
<path style=" stroke:none;fill-rule:nonzero;fill:rgb(21.176471%,6.27451%,95.686275%);fill-opacity:1;" d="M 125.417969 36 C 125.167969 36.375 125.5 36.75 126.167969 36.75 C 126.832031 36.75 127.667969 36.375 127.917969 36 C 128.167969 35.550781 127.832031 35.25 127.167969 35.25 C 126.5 35.25 125.667969 35.550781 125.417969 36 Z M 125.417969 36 "/>
<path style=" stroke:none;fill-rule:nonzero;fill:rgb(21.176471%,6.27451%,95.686275%);fill-opacity:1;" d="M 128.667969 37.425781 C 127.417969 38.476562 123.5 39.074219 122.917969 38.25 C 121.917969 36.824219 120.75 37.425781 121.667969 38.925781 C 122.082031 39.75 122.5 42.375 122.5 44.773438 C 122.5 48.898438 122.667969 49.199219 125.417969 50.851562 C 136.582031 57.75 151.667969 51.601562 153.667969 39.375 L 154.167969 36.375 L 151.832031 38.773438 C 149.5 41.25 147.25 41.925781 146.25 40.5 C 146 40.050781 146.667969 39.449219 147.832031 39 C 149 38.625 150 37.949219 150 37.5 C 150 36.449219 149.082031 36.601562 147.332031 37.949219 C 146.167969 39 145.667969 39.074219 144.582031 38.25 C 143.5 37.425781 142.917969 37.425781 141.25 38.25 C 139.667969 39 139 39 138 38.324219 C 136.5 37.199219 129.75 36.523438 128.667969 37.425781 Z M 140.667969 39.898438 C 142.417969 39.824219 144.332031 40.351562 145.582031 41.25 C 146.75 42.074219 148.25 42.75 148.832031 42.75 C 150.667969 42.75 150.25 43.949219 147.5 46.800781 C 142.75 51.675781 135.167969 53.175781 129.167969 50.398438 C 126 48.976562 124.332031 45.300781 125.25 41.851562 C 126 39.375 130 38.25 134.582031 39.226562 C 136.417969 39.675781 139.167969 39.898438 140.667969 39.898438 Z M 140.667969 39.898438 "/>
<path style=" stroke:none;fill-rule:nonzero;fill:rgb(21.176471%,6.27451%,95.686275%);fill-opacity:1;" d="M 104.5 42.300781 C 107.25 44.398438 108.332031 45.675781 107.667969 46.050781 C 107.082031 46.351562 106.75 47.324219 106.75 48.226562 C 106.832031 49.5 106.917969 49.574219 107.25 48.523438 C 107.417969 47.851562 108.332031 47.25 109.25 47.25 C 111.582031 47.25 117.5 44.398438 118.082031 43.050781 C 119.082031 40.574219 116.832031 40.199219 112.417969 42 C 108.5 43.726562 108.082031 43.726562 107.417969 42.523438 C 106.582031 41.324219 102.5 39 101.082031 39 C 100.75 39 102.25 40.5 104.5 42.300781 Z M 104.5 42.300781 "/>
</g>
</svg>
